<svg width="50" height="49" viewBox="0 0 50 49" fill="none" xmlns="http://www.w3.org/2000/svg">
<path d="M1.90735e-06 14.8515C1.90735e-06 6.64924 6.64923 0 14.8515 0H35.1485C43.3507 0 50 6.64924 50 14.8515V14.8515H1.90735e-06V14.8515Z" fill="#FDC897"/>
<path d="M50 33.6634C50 41.8656 43.3507 48.5149 35.1485 48.5149L14.8515 48.5149C6.64922 48.5149 -4.34843e-06 41.8656 -5.00683e-06 33.6634V33.6634L50 33.6634V33.6634Z" fill="#FDC897"/>
<rect x="4.57764e-05" y="17.1617" width="49.5622" height="6.74734" fill="#A67A52"/>
<rect x="4.57764e-05" y="17.1617" width="50" height="6.93069" fill="#A67A52"/>
<rect x="3.8147e-06" y="26.7327" width="50" height="4.9505" fill="#5EA652"/>
</svg>
